# xmcd
#
# Track frame offsets: 
#        150
#        19570
#        39158
#        56321
#        83641
#        97725
#        117257
#        127050
#        145258
#        156668
#        189895
#        207170
#        226186
#        248421
#
# Disc length: 3632 seconds
#
# Revision: 0
# Processed by: cddbd v1.5.2PL0 Copyright (c) Steve Scherf et al.
# Submitted via: ExactAudioCopyFreeDBPlugin 1.0
#
DISCID=a40e2e0e
DTITLE=Barrelhouse Bonni - Barbershop Blues
DYEAR=2003
DGENRE=Blues
TTITLE0=See See Rider
TTITLE1=T'Aint Nobody's Business
TTITLE2=Little Red Rooster
TTITLE3=Dream On
TTITLE4=Barbershop Boogie
TTITLE5=Why Don't You Do Right
TTITLE6=Dry Blues
TTITLE7=Honey Don't You Stay Away
TTITLE8=Drum Me Baby
TTITLE9=98th Floor
TTITLE10=Woman Be Wise
TTITLE11=When The Clouds Roll Away
TTITLE12=Travelin' On
TTITLE13=We'll Still Have Memphis
EXTD=
EXTT0=
EXTT1=
EXTT2=
EXTT3=
EXTT4=
EXTT5=
EXTT6=
EXTT7=
EXTT8=
EXTT9=
EXTT10=
EXTT11=
EXTT12=
EXTT13=
PLAYORDER=
